<?xml version="1.0" encoding="UTF-8"?>
<svg width="700px" height="188px" viewBox="0 0 700 188" version="1.1" xmlns="http://www.w3.org/2000/svg" xmlns:xlink="http://www.w3.org/1999/xlink">
    <title>logo-cognias</title>
    <g id="logo-cognias" stroke="none" stroke-width="1" fill="none" fill-rule="evenodd">
        <g id="cognias-logo" transform="translate(208.934000, 47.572000)" fill="#0F1828" fill-rule="nonzero">
            <path d="M48.375,96.492 C39.431,96.492 31.261,94.3635 23.865,90.1065 C16.469,85.8495 10.6425,80.0445 6.3855,72.6915 C2.1285,65.3385 0,57.19 0,48.246 C0,39.302 2.1285,31.1535 6.3855,23.8005 C10.6425,16.4475 16.469,10.6425 23.865,6.3855 C31.261,2.1285 39.431,0 48.375,0 C62.307,0 73.831,5.031 82.947,15.093 L70.692,26.961 C64.758,19.995 57.362,16.512 48.504,16.512 C42.742,16.512 37.496,17.8235 32.766,20.4465 C28.036,23.0695 24.3165,26.789 21.6075,31.605 C18.8985,36.421 17.544,41.968 17.544,48.246 C17.544,54.524 18.8985,60.071 21.6075,64.887 C24.3165,69.703 28.036,73.4225 32.766,76.0455 C37.496,78.6685 42.742,79.98 48.504,79.98 C58.222,79.98 66.349,75.938 72.885,67.854 L85.269,79.593 C80.711,85.097 75.3145,89.2895 69.0795,92.1705 C62.8445,95.0515 55.943,96.492 48.375,96.492 Z" id="Path"></path>
            <path d="M121.571306,96.492 C114.777306,96.492 108.714306,94.9655 103.382306,91.9125 C98.0503058,88.8595 93.9008058,84.6885 90.9338058,79.3995 C87.9668058,74.1105 86.4833058,68.155 86.4833058,61.533 C86.4833058,54.997 87.9668058,49.063 90.9338058,43.731 C93.9008058,38.399 98.0503058,34.2065 103.382306,31.1535 C108.714306,28.1005 114.777306,26.574 121.571306,26.574 C128.279306,26.574 134.299306,28.1005 139.631306,31.1535 C144.963306,34.2065 149.112806,38.399 152.079806,43.731 C155.046806,49.063 156.530306,54.997 156.530306,61.533 C156.530306,68.155 155.046806,74.1105 152.079806,79.3995 C149.112806,84.6885 144.963306,88.8595 139.631306,91.9125 C134.299306,94.9655 128.279306,96.492 121.571306,96.492 Z M121.571306,80.883 C124.839306,80.883 127.849306,80.109 130.601306,78.561 C133.353306,77.013 135.546306,74.777 137.180306,71.853 C138.814306,68.929 139.631306,65.489 139.631306,61.533 C139.631306,57.663 138.814306,54.266 137.180306,51.342 C135.546306,48.418 133.353306,46.182 130.601306,44.634 C127.849306,43.086 124.839306,42.312 121.571306,42.312 C118.303306,42.312 115.293306,43.086 112.541306,44.634 C109.789306,46.182 107.574806,48.418 105.897806,51.342 C104.220806,54.266 103.382306,57.663 103.382306,61.533 C103.382306,65.403 104.220806,68.8215 105.897806,71.7885 C107.574806,74.7555 109.789306,77.013 112.541306,78.561 C115.293306,80.109 118.303306,80.883 121.571306,80.883 Z" id="Shape"></path>
            <path d="M193.348612,124.356 C185.006612,124.356 178.083612,122.4855 172.579612,118.7445 C167.075612,115.0035 163.377612,110.51 161.485612,105.264 L177.352612,98.814 C178.728612,102.082 180.835612,104.662 183.673612,106.554 C186.511612,108.446 189.736612,109.392 193.348612,109.392 C198.680612,109.392 202.916112,107.758 206.055112,104.49 C209.194112,101.222 210.763612,96.578 210.763612,90.558 L210.763612,85.398 L209.731612,85.398 C207.667612,88.322 204.958612,90.558 201.604612,92.106 C198.250612,93.654 194.423612,94.428 190.123612,94.428 C184.705612,94.428 179.653112,93.0305 174.966112,90.2355 C170.279112,87.4405 166.516612,83.4845 163.678612,78.3675 C160.840612,73.2505 159.421612,67.295 159.421612,60.501 C159.421612,53.707 160.840612,47.7515 163.678612,42.6345 C166.516612,37.5175 170.279112,33.5615 174.966112,30.7665 C179.653112,27.9715 184.705612,26.574 190.123612,26.574 C194.423612,26.574 198.250612,27.348 201.604612,28.896 C204.958612,30.444 207.667612,32.68 209.731612,35.604 L210.763612,35.604 L210.763612,28.638 L227.017612,28.638 L227.017612,89.913 C227.017612,96.965 225.641612,103.071 222.889612,108.231 C220.137612,113.391 216.224612,117.3685 211.150612,120.1635 C206.076612,122.9585 200.142612,124.356 193.348612,124.356 Z M193.606612,79.077 C198.336612,79.077 202.378612,77.4215 205.732612,74.1105 C209.086612,70.7995 210.763612,66.263 210.763612,60.501 C210.763612,54.567 209.108112,49.9875 205.797112,46.7625 C202.486112,43.5375 198.422612,41.925 193.606612,41.925 C188.790612,41.925 184.705612,43.559 181.351612,46.827 C177.997612,50.095 176.320612,54.653 176.320612,60.501 C176.320612,66.349 177.997612,70.907 181.351612,74.175 C184.705612,77.443 188.790612,79.077 193.606612,79.077 Z" id="Shape"></path>
            <path d="M237.132917,28.638 L252.999917,28.638 L252.999917,36.894 L254.031917,36.894 C256.009917,33.712 258.804917,31.1965 262.416917,29.3475 C266.028917,27.4985 269.941917,26.574 274.155917,26.574 C282.067917,26.574 288.087917,28.982 292.215917,33.798 C296.343917,38.614 298.407917,45.193 298.407917,53.535 L298.407917,94.428 L281.508917,94.428 L281.508917,55.599 C281.508917,51.385 280.433917,48.117 278.283917,45.795 C276.133917,43.473 273.123917,42.312 269.253917,42.312 C264.695917,42.312 261.019417,44.075 258.224417,47.601 C255.429417,51.127 254.031917,55.556 254.031917,60.888 L254.031917,94.428 L237.132917,94.428 L237.132917,28.638 Z" id="Path"></path>
            <polygon id="Shape" points="309.039223 28.638 325.938223 28.638 325.938223 94.428 309.039223 94.428"></polygon>
            <path d="M356.693529,96.492 C349.727529,96.492 344.008529,94.4495 339.536529,90.3645 C335.064529,86.2795 332.828529,80.926 332.828529,74.304 C332.828529,69.918 333.989529,66.048 336.311529,62.694 C338.633529,59.34 341.815529,56.76 345.857529,54.954 C349.899529,53.148 354.371529,52.245 359.273529,52.245 C366.067529,52.245 371.872529,53.234 376.688529,55.212 L376.688529,52.374 C376.688529,48.762 375.334029,45.838 372.625029,43.602 C369.916029,41.366 366.282529,40.248 361.724529,40.248 C358.628529,40.248 355.640029,40.9575 352.759029,42.3765 C349.878029,43.7955 347.491529,45.666 345.599529,47.988 L334.763529,39.474 C337.945529,35.346 341.944529,32.164 346.760529,29.928 C351.576529,27.692 356.822529,26.574 362.498529,26.574 C372.560529,26.574 380.214529,28.896 385.460529,33.54 C390.706529,38.184 393.329529,44.978 393.329529,53.922 L393.329529,94.428 L376.688529,94.428 L376.688529,87.72 L375.656529,87.72 C373.678529,90.3 371.077029,92.407 367.852029,94.041 C364.627029,95.675 360.907529,96.492 356.693529,96.492 Z M360.692529,83.334 C365.594529,83.334 369.486029,81.7645 372.367029,78.6255 C375.248029,75.4865 376.688529,71.81 376.688529,67.596 C372.302529,65.532 367.701529,64.5 362.885529,64.5 C354.113529,64.5 349.727529,67.768 349.727529,74.304 C349.727529,76.97 350.673529,79.1415 352.565529,80.8185 C354.457529,82.4955 357.166529,83.334 360.692529,83.334 Z" id="Shape"></path>
            <path d="M426.922835,96.492 C418.924835,96.492 412.453335,94.858 407.508335,91.59 C402.563335,88.322 399.101835,84.065 397.123835,78.819 L412.216835,72.24 C413.592835,75.336 415.549335,77.6795 418.086335,79.2705 C420.623335,80.8615 423.568835,81.657 426.922835,81.657 C430.018835,81.657 432.598835,81.1625 434.662835,80.1735 C436.726835,79.1845 437.758835,77.572 437.758835,75.336 C437.758835,73.186 436.812835,71.5735 434.920835,70.4985 C433.028835,69.4235 430.190835,68.456 426.406835,67.596 L418.666835,65.919 C413.334835,64.629 408.905835,62.2855 405.379835,58.8885 C401.853835,55.4915 400.090835,51.256 400.090835,46.182 C400.090835,42.398 401.230335,39.001 403.509335,35.991 C405.788335,32.981 408.884335,30.659 412.797335,29.025 C416.710335,27.391 421.031835,26.574 425.761835,26.574 C439.349835,26.574 448.422835,31.347 452.980835,40.893 L438.532835,47.214 C435.952835,42.57 431.824835,40.248 426.148835,40.248 C423.224835,40.248 420.902835,40.7855 419.182835,41.8605 C417.462835,42.9355 416.602835,44.29 416.602835,45.924 C416.602835,49.02 419.526835,51.342 425.374835,52.89 L435.049835,55.212 C441.585835,56.846 446.509335,59.34 449.820335,62.694 C453.131335,66.048 454.786835,70.176 454.786835,75.078 C454.786835,79.292 453.561335,83.0115 451.110335,86.2365 C448.659335,89.4615 445.305335,91.977 441.048335,93.783 C436.791335,95.589 432.082835,96.492 426.922835,96.492 Z" id="Path"></path>
        </g>
        <g id="Group" transform="translate(6.000000, 6.000000)" fill-rule="nonzero">
            <rect id="Rectangle" fill="#111827" x="0" y="0" width="80.9828555" height="80.9828555" rx="6"></rect>
            <rect id="Rectangle" fill-opacity="0.6" fill="#374151" x="92.9828555" y="0" width="80.9828555" height="80.9828555" rx="6"></rect>
            <rect id="Rectangle" fill-opacity="0.6" fill="#374151" x="0" y="93.9828555" width="80.9828555" height="80.9828555" rx="6"></rect>
            <rect id="Rectangle" fill-opacity="0.8" fill="#111827" x="92.9828555" y="93.9828555" width="80.9828555" height="80.9828555" rx="6"></rect>
        </g>
        <path d="M523.737616,44.458702 C523.833427,44.4800741 523.910307,44.5513802 523.938817,44.6453145 L525.895155,51.0912105 L526.439213,52.8724264 C526.531504,53.1746085 526.809213,53.3761491 527.117399,53.3704312 L528.679801,53.2422012 L528.679775,53.242246 L531.886201,52.9791731 C532.275745,52.9472119 532.617443,53.2370904 532.649404,53.6266349 C532.655051,53.6954527 532.650595,53.7647263 532.63618,53.8322537 L531.41634,59.5464568 C531.410552,59.5735676 531.403247,59.60006 531.394521,59.6258478 L529.292495,69.3332404 C529.260681,69.4801636 529.115785,69.5734778 528.968862,69.5416635 C528.873223,69.5209542 528.796061,69.4505014 528.766761,69.3571356 L526.83444,63.1997335 L526.834383,63.1997503 L526.730653,62.8690186 L526.172812,61.091356 C526.069316,60.7936815 525.785704,60.5981788 525.47414,60.6183736 L525.463555,60.619141 L523.957628,60.7432698 L520.748864,61.0438045 C520.359714,61.0802525 520.014698,60.7943307 519.97825,60.4051803 C519.971611,60.3342965 519.975706,60.2628167 519.990397,60.1931548 L521.220188,54.3615286 C521.235041,54.2910944 521.26013,54.2248279 521.293754,54.1642264 L523.412691,44.6651056 C523.44542,44.5183834 523.590894,44.4259733 523.737616,44.458702 Z" id="Path" fill="#FF4D00" transform="translate(526.313471, 57.000000) rotate(32.000000) translate(-526.313471, -57.000000) "></path>
    </g>
</svg>